<svg xmlns="http://www.w3.org/2000/svg" width="400" height="300" viewBox="0 0 400 300"><rect width="100%" height="100%" fill="#DDDDDD"/><path fill="#999999" d="M107.025 166.595v-17.71q-1.62-1.97-3.52-2.78-1.91-.8-4.1-.8-2.16 0-3.89.8-1.74.81-2.97 2.45-1.23 1.63-1.88 4.16-.66 2.52-.66 5.95 0 3.46.56 5.87.56 2.4 1.6 3.92t2.54 2.2q1.5.67 3.35.67 2.96 0 5.04-1.23t3.93-3.5m0-45.51h9.51v57.21h-5.82q-1.88 0-2.38-1.73l-.81-3.81q-2.39 2.73-5.49 4.42-3.1 1.7-7.22 1.7-3.23 0-5.92-1.35-2.7-1.35-4.64-3.91-1.95-2.56-3.01-6.33t-1.06-8.62q0-4.39 1.2-8.17 1.19-3.77 3.42-6.54 2.24-2.77 5.36-4.33 3.11-1.56 7-1.56 3.31 0 5.66 1.04t4.2 2.81zm26.41 32.92h17.94q0-1.85-.52-3.49-.52-1.63-1.56-2.87-1.04-1.23-2.64-1.94-1.59-.71-3.71-.71-4.12 0-6.49 2.35-2.37 2.34-3.02 6.66m24.25 5.73h-24.44q.23 3.04 1.08 5.26.84 2.21 2.23 3.66 1.38 1.44 3.29 2.15t4.22.71 3.98-.53q1.68-.54 2.93-1.2 1.25-.65 2.19-1.19t1.83-.54q1.19 0 1.77.88l2.73 3.47q-1.57 1.85-3.54 3.1-1.96 1.25-4.1 2-2.13.75-4.35 1.06-2.21.31-4.29.31-4.12 0-7.66-1.37t-6.16-4.04q-2.62-2.68-4.12-6.62-1.5-3.95-1.5-9.15 0-4.04 1.31-7.6 1.3-3.56 3.75-6.2 2.44-2.64 5.97-4.18 3.52-1.54 7.95-1.54 3.73 0 6.89 1.2 3.16 1.19 5.43 3.48t3.56 5.62 1.29 7.61q0 2.15-.46 2.9-.47.75-1.78.75m21.64 18.56h-9.51v-32.34l-3.42-.54q-1.12-.23-1.79-.79-.68-.56-.68-1.6v-3.88h5.89v-2.93q0-3.39 1.02-6.08 1.02-2.7 2.93-4.58 1.9-1.89 4.64-2.89 2.73-1 6.16-1 2.73 0 5.08.73l-.19 4.77q-.04.54-.31.87t-.71.5q-.45.17-1.02.23-.58.06-1.24.06-1.69 0-3.02.36-1.33.37-2.25 1.27-.92.91-1.4 2.39-.49 1.48-.49 3.68v2.62h10.28v6.77h-9.97zm36.19-10.2v-6.66q-4.12.19-6.93.71t-4.5 1.33q-1.7.81-2.43 1.88-.73 1.08-.73 2.35 0 2.51 1.48 3.58 1.48 1.08 3.87 1.08 2.93 0 5.06-1.06 2.14-1.06 4.18-3.21m-20.1-20.75-1.69-3.05q6.82-6.23 16.4-6.23 3.47 0 6.2 1.13 2.73 1.14 4.62 3.16t2.87 4.83.98 6.16v24.95h-4.31q-1.35 0-2.08-.4-.73-.41-1.16-1.64l-.84-2.85q-1.5 1.35-2.93 2.37-1.42 1.02-2.96 1.71t-3.29 1.06q-1.76.37-3.87.37-2.51 0-4.62-.68-2.12-.67-3.66-2.02t-2.39-3.35-.85-4.66q0-1.5.5-2.98.51-1.48 1.64-2.83 1.14-1.35 2.95-2.54t4.44-2.08q2.64-.89 6.14-1.44 3.51-.56 8.01-.68v-2.31q0-3.96-1.69-5.87-1.7-1.91-4.89-1.91-2.31 0-3.83.54t-2.68 1.22q-1.15.67-2.1 1.21-.94.54-2.09.54-1.01 0-1.7-.52t-1.12-1.21m62.84-8.55h9.51v39.5h-5.82q-1.88 0-2.38-1.73l-.66-3.16q-2.42 2.46-5.35 3.99-2.93 1.52-6.89 1.52-3.24 0-5.72-1.1t-4.18-3.1q-1.69-2-2.56-4.76-.86-2.75-.86-6.06v-25.1h9.51v25.1q0 3.62 1.67 5.6 1.68 1.99 5.03 1.99 2.46 0 4.62-1.1 2.15-1.1 4.08-3.02zm19.02-17.71h9.51v57.21h-9.51zm32.18 57.83q-5.16 0-7.91-2.91t-2.75-8.03v-22.06h-4.05q-.77 0-1.3-.5-.54-.5-.54-1.5v-3.77l6.35-1.04 2-10.78q.19-.77.73-1.2.54-.42 1.39-.42h4.93v12.44h10.55v6.77h-10.55v21.41q0 1.85.9 2.89.91 1.03 2.48 1.03.89 0 1.49-.21.59-.21 1.04-.44.44-.23.79-.44.34-.21.69-.21.42 0 .69.21t.58.63l2.85 4.62q-2.08 1.73-4.78 2.62-2.69.89-5.58.89"/></svg>